<svg width="254" height="72" viewBox="0 0 254 72" fill="none" xmlns="http://www.w3.org/2000/svg">
<path d="M99.9537 11.4717C99.8524 11.6424 99.7463 11.7679 99.6353 11.8482C99.524 11.9285 99.3826 11.9687 99.2108 11.9687C99.0289 11.9687 98.8219 11.8884 98.5892 11.7277C98.3569 11.5571 98.0637 11.3714 97.7101 11.1706C97.3664 10.9598 96.9523 10.7741 96.4673 10.6134C95.9822 10.4428 95.4011 10.3575 94.7239 10.3575C94.0874 10.3575 93.5267 10.4428 93.0413 10.6134C92.5667 10.7741 92.1674 11 91.8441 11.2911C91.5206 11.5721 91.273 11.9084 91.1012 12.2999C90.9394 12.6814 90.8589 13.098 90.8589 13.5498C90.8589 14.132 91.0051 14.6138 91.2983 14.9953C91.6015 15.3768 91.9956 15.703 92.4806 15.9741C92.9656 16.2451 93.5163 16.481 94.1327 16.6818C94.7494 16.8826 95.381 17.0934 96.0275 17.3142C96.6743 17.5251 97.3059 17.771 97.9223 18.0521C98.5387 18.3332 99.0894 18.6895 99.5745 19.1212C100.06 19.5428 100.449 20.0648 100.742 20.6872C101.045 21.2996 101.197 22.0525 101.197 22.9459C101.197 23.8996 101.03 24.793 100.696 25.6262C100.373 26.4594 99.898 27.1872 99.2716 27.8096C98.6449 28.432 97.8719 28.9239 96.9523 29.2853C96.0427 29.6366 95.007 29.8123 93.8448 29.8123C93.1475 29.8123 92.4706 29.742 91.8137 29.6015C91.1569 29.471 90.5353 29.2853 89.9493 29.0444C89.363 28.7934 88.8123 28.4973 88.2969 28.1559C87.7918 27.8046 87.3369 27.4131 86.9327 26.9814L87.8575 25.4455C87.9484 25.3251 88.0545 25.2247 88.1759 25.1444C88.3072 25.0641 88.4535 25.0239 88.6153 25.0239C88.8275 25.0239 89.0702 25.1343 89.343 25.3552C89.6258 25.576 89.9694 25.822 90.3735 26.093C90.788 26.354 91.2782 26.5949 91.8441 26.8158C92.4201 27.0366 93.1174 27.1471 93.9357 27.1471C94.6029 27.1471 95.1989 27.0617 95.7243 26.8911C96.2498 26.7104 96.6895 26.4594 97.0432 26.1382C97.4069 25.8069 97.6848 25.4104 97.877 24.9486C98.0689 24.4868 98.165 23.9749 98.165 23.4127C98.165 22.7802 98.0184 22.2633 97.7253 21.8617C97.4321 21.4602 97.0432 21.1239 96.5582 20.8528C96.0732 20.5818 95.5224 20.3509 94.9061 20.1602C94.2897 19.9695 93.658 19.7737 93.0112 19.5729C92.3644 19.3621 91.7328 19.1212 91.1164 18.8501C90.5 18.5791 89.9493 18.2278 89.4643 17.7961C88.9789 17.3544 88.59 16.8073 88.2969 16.1548C88.004 15.4922 87.8575 14.6791 87.8575 13.7154C87.8575 12.9424 88.0089 12.1945 88.3121 11.4717C88.6153 10.749 89.055 10.1115 89.6309 9.55941C90.2169 8.99723 90.9346 8.55051 91.7833 8.21925C92.6323 7.87792 93.6024 7.70728 94.6938 7.70728C95.9165 7.70728 97.038 7.90303 98.0589 8.29453C99.0894 8.676 99.9838 9.22811 100.742 9.95091L99.9537 11.4717ZM108.41 17.2992H109.471C109.855 17.2992 110.164 17.254 110.396 17.1637C110.639 17.0633 110.856 16.8976 111.048 16.6667L117.975 8.67098C118.197 8.39995 118.425 8.21423 118.657 8.11385C118.889 8.00341 119.177 7.94819 119.521 7.94819H122.28L114.216 17.1637C114.014 17.4247 113.811 17.6355 113.61 17.7961C113.417 17.9567 113.215 18.0922 113.003 18.2027C113.559 18.3934 114.044 18.7799 114.458 19.3621L122.841 29.5714H120.037C119.834 29.5714 119.658 29.5563 119.506 29.5262C119.364 29.4961 119.238 29.4559 119.127 29.4058C119.026 29.3455 118.93 29.2753 118.839 29.1949C118.758 29.1146 118.682 29.0193 118.612 28.9088L111.442 20.4764C111.341 20.3459 111.24 20.2355 111.139 20.1451C111.037 20.0548 110.921 19.9845 110.79 19.9343C110.659 19.8741 110.507 19.8339 110.335 19.8139C110.164 19.7837 109.961 19.7687 109.729 19.7687H108.41V29.5714H105.182V7.94819H108.41V17.2992ZM128.705 29.5714H125.461V7.94819H128.705V29.5714ZM146.537 26.876V29.5714H134.077V7.94819H137.305V26.876H146.537ZM162.139 26.876V29.5714H149.679V7.94819H152.907V26.876H162.139ZM103.531 46.6286H96.6187V65.5714H93.4053V46.6286H86.4629V43.9482H103.531V46.6286ZM112.831 54.3683C113.66 54.3683 114.387 54.268 115.014 54.0671C115.651 53.8662 116.181 53.5853 116.605 53.224C117.03 52.8525 117.348 52.4156 117.561 51.9139C117.773 51.4019 117.879 50.8397 117.879 50.2274C117.879 48.9825 117.464 48.0439 116.636 47.4116C115.817 46.7791 114.584 46.4628 112.937 46.4628H109.89V54.3683H112.831ZM122.987 65.5714H120.107C119.531 65.5714 119.112 65.3454 118.849 64.8938L113.468 57.3949C113.296 57.1439 113.109 56.9684 112.907 56.8677C112.705 56.7575 112.402 56.7022 111.997 56.7022H109.89V65.5714H106.662V43.9482H112.937C114.342 43.9482 115.549 44.0939 116.56 44.3848C117.581 44.666 118.419 45.0726 119.076 45.6046C119.743 46.1266 120.233 46.7591 120.546 47.502C120.87 48.2448 121.031 49.0779 121.031 50.0014C121.031 50.7545 120.915 51.462 120.683 52.1247C120.451 52.7872 120.107 53.3844 119.652 53.9164C119.208 54.4387 118.662 54.8903 118.015 55.2719C117.368 55.6534 116.636 55.9443 115.817 56.1452C116.221 56.3859 116.57 56.7225 116.863 57.1541L122.987 65.5714ZM137.353 57.5154L134.124 49.1281C133.892 48.5559 133.659 47.833 133.427 46.9597C133.316 47.3914 133.199 47.7929 133.078 48.1644C132.967 48.536 132.856 48.8671 132.745 49.1583L129.531 57.5154H137.353ZM143.734 65.5714H141.248C140.965 65.5714 140.733 65.501 140.551 65.3605C140.369 65.2201 140.238 65.0394 140.157 64.8186L138.232 59.8043H128.637L126.712 64.8186C126.641 65.0092 126.509 65.185 126.318 65.3454C126.125 65.4962 125.893 65.5714 125.62 65.5714H123.134L131.805 43.9482H135.064L143.734 65.5714ZM164.278 43.9482V65.5714H162.641C162.388 65.5714 162.176 65.5261 162.004 65.4357C161.842 65.3454 161.676 65.1998 161.504 64.9992L149.211 49.2033C149.231 49.4746 149.246 49.7404 149.256 50.0014C149.276 50.2624 149.286 50.5083 149.286 50.7394V65.5714H146.452V43.9482H148.119C148.402 43.9482 148.614 43.9833 148.756 44.0537C148.897 44.1138 149.054 44.2594 149.226 44.4902L161.549 60.3013C161.519 60.01 161.494 59.7288 161.473 59.4578C161.463 59.1769 161.458 58.9159 161.458 58.6748V43.9482H164.278ZM180.925 47.4717C180.824 47.6424 180.718 47.7678 180.607 47.8481C180.496 47.9285 180.354 47.9687 180.182 47.9687C180.001 47.9687 179.793 47.8883 179.561 47.7276C179.329 47.5569 179.035 47.3715 178.682 47.1706C178.338 46.9597 177.924 46.7739 177.439 46.6135C176.954 46.4429 176.373 46.3574 175.696 46.3574C175.059 46.3574 174.498 46.4429 174.013 46.6135C173.538 46.7739 173.139 46.9999 172.815 47.2911C172.492 47.572 172.245 47.9086 172.073 48.3001C171.911 48.6813 171.83 49.0979 171.83 49.5498C171.83 50.1319 171.977 50.6137 172.27 50.9952C172.573 51.3768 172.967 51.703 173.452 51.974C173.937 52.245 174.488 52.4809 175.104 52.6818C175.721 52.8827 176.352 53.0935 176.999 53.3144C177.646 53.5249 178.278 53.7711 178.894 54.052C179.51 54.3333 180.061 54.6894 180.546 55.1211C181.031 55.5428 181.42 56.0648 181.713 56.6871C182.016 57.2994 182.168 58.0525 182.168 58.9458C182.168 59.8995 182.001 60.793 181.668 61.6262C181.344 62.4593 180.87 63.1874 180.243 63.8096C179.616 64.4319 178.843 64.924 177.924 65.2853C177.014 65.6366 175.979 65.8125 174.816 65.8125C174.119 65.8125 173.442 65.7421 172.785 65.6016C172.128 65.4711 171.507 65.2853 170.921 65.0443C170.335 64.7935 169.784 64.4972 169.269 64.1558C168.763 63.8045 168.308 63.413 167.904 62.9813L168.829 61.4455C168.92 61.325 169.026 61.2247 169.147 61.1444C169.279 61.064 169.425 61.0238 169.587 61.0238C169.799 61.0238 170.042 61.1344 170.314 61.3552C170.597 61.576 170.941 61.8219 171.345 62.0929C171.76 62.3539 172.25 62.595 172.815 62.8158C173.391 63.0366 174.089 63.1472 174.907 63.1472C175.574 63.1472 176.171 63.0617 176.696 62.891C177.221 62.7104 177.661 62.4593 178.015 62.1382C178.379 61.8068 178.656 61.4105 178.848 60.9486C179.041 60.4867 179.136 59.975 179.136 59.4128C179.136 58.7802 178.99 58.2634 178.697 57.8616C178.404 57.4601 178.015 57.1239 177.53 56.853C177.044 56.5817 176.494 56.3509 175.877 56.1603C175.261 55.9694 174.629 55.7736 173.983 55.573C173.336 55.3622 172.704 55.1211 172.088 54.8501C171.471 54.5792 170.921 54.2279 170.436 53.7962C169.951 53.3545 169.562 52.8071 169.269 52.1546C168.975 51.4922 168.829 50.679 168.829 49.7153C168.829 48.9423 168.981 48.1946 169.284 47.4717C169.587 46.7489 170.026 46.1115 170.603 45.5592C171.189 44.9974 171.906 44.5506 172.755 44.2192C173.604 43.8779 174.574 43.7072 175.665 43.7072C176.888 43.7072 178.01 43.9029 179.03 44.2944C180.061 44.676 180.955 45.2282 181.713 45.9507L180.925 47.4717ZM189.397 46.5531V53.7962H198.128V56.401H189.397V65.5714H186.153V43.9482H199.644V46.5531H189.397ZM216.8 62.9662L216.785 65.5714H203.295V43.9482H216.785V46.5531H206.539V53.4047H214.785V55.9192H206.539V62.9662H216.8ZM226.961 54.3683C227.789 54.3683 228.517 54.268 229.144 54.0671C229.78 53.8662 230.311 53.5853 230.735 53.224C231.16 52.8525 231.478 52.4156 231.69 51.9139C231.903 51.4019 232.009 50.8397 232.009 50.2274C232.009 48.9825 231.594 48.0439 230.766 47.4116C229.947 46.7791 228.714 46.4628 227.067 46.4628H224.02V54.3683H226.961ZM237.117 65.5714H234.237C233.661 65.5714 233.242 65.3454 232.979 64.8938L227.598 57.3949C227.426 57.1439 227.239 56.9684 227.037 56.8677C226.835 56.7575 226.531 56.7022 226.127 56.7022H224.02V65.5714H220.792V43.9482H227.067C228.472 43.9482 229.679 44.0939 230.69 44.3848C231.71 44.666 232.549 45.0726 233.206 45.6046C233.873 46.1266 234.363 46.7591 234.677 47.502C235 48.2448 235.162 49.0779 235.162 50.0014C235.162 50.7545 235.045 51.462 234.813 52.1247C234.58 52.7872 234.237 53.3844 233.782 53.9164C233.337 54.4387 232.792 54.8903 232.145 55.2719C231.498 55.6534 230.766 55.9443 229.947 56.1452C230.351 56.3859 230.7 56.7225 230.993 57.1541L237.117 65.5714ZM251.179 47.4717C251.078 47.6424 250.972 47.7678 250.861 47.8481C250.75 47.9285 250.608 47.9687 250.437 47.9687C250.255 47.9687 250.048 47.8883 249.815 47.7276C249.583 47.5569 249.29 47.3715 248.936 47.1706C248.592 46.9597 248.178 46.7739 247.693 46.6135C247.208 46.4429 246.627 46.3574 245.95 46.3574C245.313 46.3574 244.752 46.4429 244.267 46.6135C243.792 46.7739 243.393 46.9999 243.07 47.2911C242.746 47.572 242.499 47.9086 242.327 48.3001C242.165 48.6813 242.085 49.0979 242.085 49.5498C242.085 50.1319 242.231 50.6137 242.524 50.9952C242.827 51.3768 243.221 51.703 243.706 51.974C244.191 52.245 244.742 52.4809 245.358 52.6818C245.975 52.8827 246.607 53.0935 247.253 53.3144C247.9 53.5249 248.532 53.7711 249.148 54.052C249.764 54.3333 250.315 54.6894 250.801 55.1211C251.286 55.5428 251.675 56.0648 251.968 56.6871C252.271 57.2994 252.422 58.0525 252.422 58.9458C252.422 59.8995 252.256 60.793 251.922 61.6262C251.599 62.4593 251.124 63.1874 250.497 63.8096C249.871 64.4319 249.098 64.924 248.178 65.2853C247.269 65.6366 246.233 65.8125 245.071 65.8125C244.373 65.8125 243.696 65.7421 243.039 65.6016C242.383 65.4711 241.761 65.2853 241.175 65.0443C240.589 64.7935 240.038 64.4972 239.523 64.1558C239.018 63.8045 238.563 63.413 238.158 62.9813L239.083 61.4455C239.174 61.325 239.28 61.2247 239.402 61.1444C239.533 61.064 239.679 61.0238 239.841 61.0238C240.053 61.0238 240.296 61.1344 240.569 61.3552C240.852 61.576 241.195 61.8219 241.599 62.0929C242.014 62.3539 242.504 62.595 243.07 62.8158C243.646 63.0366 244.343 63.1472 245.161 63.1472C245.829 63.1472 246.425 63.0617 246.95 62.891C247.476 62.7104 247.915 62.4593 248.269 62.1382C248.633 61.8068 248.911 61.4105 249.103 60.9486C249.295 60.4867 249.391 59.975 249.391 59.4128C249.391 58.7802 249.244 58.2634 248.951 57.8616C248.658 57.4601 248.269 57.1239 247.784 56.853C247.299 56.5817 246.748 56.3509 246.132 56.1603C245.515 55.9694 244.884 55.7736 244.237 55.573C243.59 55.3622 242.959 55.1211 242.342 54.8501C241.726 54.5792 241.175 54.2279 240.69 53.7962C240.205 53.3545 239.816 52.8071 239.523 52.1546C239.23 51.4922 239.083 50.679 239.083 49.7153C239.083 48.9423 239.235 48.1946 239.538 47.4717C239.841 46.7489 240.281 46.1115 240.857 45.5592C241.443 44.9974 242.16 44.5506 243.009 44.2192C243.858 43.8779 244.828 43.7072 245.92 43.7072C247.142 43.7072 248.264 43.9029 249.285 44.2944C250.315 44.676 251.21 45.2282 251.968 45.9507L251.179 47.4717Z" fill="white"/>
<path fill-rule="evenodd" clip-rule="evenodd" d="M66.8314 14.1479V13.9886H31.7585V20.737H45.1605V22.9455L66.8314 14.1479ZM45.1605 37.8836L53.4293 34.5269V58.1432H45.1605V37.8836ZM19.8352 33.2267C19.3302 33.0303 18.8203 32.8468 18.3055 32.6764C17.0144 32.2287 15.7541 31.8112 14.5246 31.4245C13.295 31.0377 12.1987 30.6 11.2355 30.1114C10.2724 29.6229 9.49368 29.0325 8.89938 28.3404C8.3256 27.6482 8.03869 26.783 8.03869 25.7448C8.03869 24.9305 8.18213 24.1875 8.46904 23.5157C8.75594 22.8236 9.18629 22.2332 9.76007 21.7446C10.3544 21.2561 11.0818 20.8795 11.9425 20.6148C12.8032 20.3298 13.8073 20.1873 14.9549 20.1873C16.2255 20.1873 17.3218 20.3502 18.244 20.6759C19.1866 20.9812 20.0064 21.3273 20.7031 21.7141C21.3998 22.1009 21.9941 22.4572 22.486 22.7829C22.9983 23.0882 23.4696 23.2409 23.8999 23.2409C24.3098 23.2409 24.6479 23.1493 24.9143 22.9661C25.2012 22.7625 25.4676 22.447 25.7135 22.0195L27.773 18.1414C26.2156 16.6757 24.3303 15.5357 22.1171 14.7214C19.9039 13.9072 17.4858 13.5 14.8627 13.5C12.5266 13.5 10.4568 13.8562 8.65347 14.5688C6.85014 15.2813 5.33367 16.2279 4.10412 17.4086C2.87457 18.5893 1.93191 19.943 1.27615 21.4698C0.640878 22.9966 0.323242 24.5641 0.323242 26.1723C0.323242 28.1877 0.610139 29.8875 1.18393 31.2718C1.77822 32.6356 2.55693 33.7757 3.52008 34.6918C4.48324 35.6079 5.57959 36.351 6.80914 36.9209C7.44246 37.2144 8.08121 37.4866 8.7254 37.737L19.8352 33.2267ZM20.4231 47.926L28.5695 44.6191C28.5353 46.4988 28.1878 48.2689 27.5271 49.9291C26.8509 51.6594 25.8467 53.1762 24.5147 54.4789C23.2032 55.7614 21.5945 56.7794 19.6887 57.5325C17.7829 58.2654 15.6005 58.6318 13.1413 58.6318C11.7274 58.6318 10.3339 58.4894 8.96086 58.2043C7.58787 57.9398 6.2661 57.5528 4.99555 57.0439C3.89451 56.5955 2.84915 56.0684 1.85942 55.4622L11.0525 51.7301C11.7661 51.8525 12.5443 51.9139 13.3873 51.9139C15.7439 51.9139 17.5677 51.3643 18.8588 50.265C19.5838 49.6363 20.1052 48.8565 20.4231 47.926Z" fill="white"/>
<path d="M66.8321 13.9886H66.9939V13.8279H66.8321V13.9886ZM66.8321 14.148L66.8932 14.2968L66.9939 14.2559V14.148H66.8321ZM31.7592 13.9886V13.8279H31.5974V13.9886H31.7592ZM31.7592 20.737H31.5974V20.8977H31.7592V20.737ZM45.1612 20.737H45.323V20.5763H45.1612V20.737ZM45.1612 22.9456H44.9994V23.1848L45.2224 23.0943L45.1612 22.9456ZM45.1612 37.8836L45.1 37.7348L44.9994 37.7756V37.8836H45.1612ZM53.43 34.527H53.5917V34.2875L53.3688 34.3781L53.43 34.527ZM53.43 58.1433V58.304H53.5917V58.1433H53.43ZM45.1612 58.1433H44.9994V58.304H45.1612V58.1433ZM18.3061 32.6765L18.2528 32.8282L18.255 32.8289L18.3061 32.6765ZM19.8359 33.2268L19.8971 33.3756L20.2715 33.2236L19.8948 33.077L19.8359 33.2268ZM14.5252 31.4245L14.4764 31.5778L14.5252 31.4245ZM11.2362 30.1115L11.1626 30.2546L11.2362 30.1115ZM8.90003 28.3404L8.77514 28.4426L8.77695 28.4447L8.90003 28.3404ZM8.46969 23.5158L8.61863 23.5786L8.61927 23.577L8.46969 23.5158ZM9.76072 21.7447L9.65757 21.6209L9.65543 21.6227L9.76072 21.7447ZM11.9432 20.6149L11.991 20.7684L11.9943 20.7673L11.9432 20.6149ZM18.2446 20.676L18.1904 20.8275L18.1945 20.8288L18.2446 20.676ZM20.7038 21.7142L20.7827 21.5739L20.7038 21.7142ZM22.4866 22.7829L22.3969 22.9166L22.4001 22.9188L22.4034 22.9207L22.4866 22.7829ZM24.915 22.9661L25.0071 23.0983L25.009 23.0969L24.915 22.9661ZM25.7142 22.0195L25.8546 22.0993L25.856 22.0969L25.8573 22.0945L25.7142 22.0195ZM27.7737 18.1415L27.9168 18.2165L27.974 18.1087L27.885 18.0248L27.7737 18.1415ZM22.1177 14.7215L22.0615 14.8722L22.1177 14.7215ZM8.65412 14.5688L8.71392 14.7182L8.65412 14.5688ZM4.10477 17.4086L3.99233 17.2931L4.10477 17.4086ZM1.2768 21.4699L1.12798 21.4068L1.12728 21.4085L1.2768 21.4699ZM1.18458 31.2719L1.03496 31.3331L1.03611 31.3357L1.18458 31.2719ZM3.52073 34.6919L3.40884 34.8079L3.52073 34.6919ZM6.80979 36.921L6.74139 37.0666L6.80979 36.921ZM8.72605 37.7371L8.6671 37.8865L8.72734 37.91L8.78724 37.8856L8.72605 37.7371ZM20.4237 47.926L20.3625 47.7775L20.2942 47.8052L20.2705 47.8746L20.4237 47.926ZM28.5701 44.6192L28.7319 44.6221L28.7363 44.3781L28.5089 44.4704L28.5701 44.6192ZM27.5278 49.9292L27.3773 49.87L27.377 49.871L27.5278 49.9292ZM24.5154 54.479L24.6289 54.5934L24.5154 54.479ZM19.6894 57.5326L19.7478 57.6824L19.7492 57.682L19.6894 57.5326ZM8.96151 58.2044L8.99461 58.0472L8.99231 58.0465L8.96151 58.2044ZM4.9962 57.044L4.93485 57.1928L4.93569 57.1931L4.9962 57.044ZM1.86007 55.4622L1.79887 55.3134L1.50421 55.4333L1.77516 55.5992L1.86007 55.4622ZM11.0532 51.7301L11.0807 51.572L11.035 51.564L10.992 51.5816L11.0532 51.7301ZM18.8594 50.2651L18.9647 50.3872L18.9658 50.3862L18.8594 50.2651ZM66.6703 13.9886V14.148H66.9939V13.9886H66.6703ZM31.7592 14.1494H66.8321V13.8279H31.7592V14.1494ZM31.9209 20.737V13.9886H31.5974V20.737H31.9209ZM45.1612 20.5763H31.7592V20.8977H45.1612V20.5763ZM45.323 22.9456V20.737H44.9994V22.9456H45.323ZM66.7709 13.9992L45.1 22.7968L45.2224 23.0943L66.8932 14.2968L66.7709 13.9992ZM45.2224 38.0325L53.4911 34.6755L53.3688 34.3781L45.1 37.7348L45.2224 38.0325ZM53.2682 34.527V58.1433H53.5917V34.527H53.2682ZM53.43 57.9826H45.1612V58.304H53.43V57.9826ZM45.323 58.1433V37.8836H44.9994V58.1433H45.323ZM18.255 32.8289C18.7671 32.9986 19.2745 33.1811 19.7769 33.3762L19.8948 33.077C19.3872 32.8796 18.8747 32.6955 18.3573 32.5241L18.255 32.8289ZM14.4764 31.5778C15.7044 31.964 16.9632 32.3808 18.2528 32.8282L18.3594 32.5248C17.067 32.0764 15.8052 31.6586 14.5741 31.2713L14.4764 31.5778ZM11.1626 30.2546C12.1351 30.7479 13.2399 31.1888 14.4764 31.5778L14.5741 31.2713C13.3515 30.8867 12.2636 30.4522 11.3098 29.9684L11.1626 30.2546ZM8.77695 28.4447C9.38726 29.1555 10.1839 29.7582 11.1626 30.2546L11.3098 29.9684C10.3622 29.4877 9.60136 28.9096 9.02312 28.2361L8.77695 28.4447ZM7.87756 25.7449C7.87756 26.8142 8.17382 27.7172 8.77514 28.4426L9.02493 28.2382C8.47865 27.5793 8.20113 26.752 8.20113 25.7449H7.87756ZM8.32075 23.453C8.02446 24.1468 7.87756 24.9115 7.87756 25.7449H8.20113C8.20113 24.9497 8.34114 24.2283 8.61863 23.5786L8.32075 23.453ZM9.65543 21.6227C9.0623 22.1277 8.61675 22.7389 8.3201 23.4546L8.61927 23.577C8.89641 22.9084 9.31154 22.3388 9.86601 21.8667L9.65543 21.6227ZM11.8954 20.4613C11.0178 20.7312 10.2707 21.1169 9.65757 21.6209L9.86387 21.8685C10.4393 21.3954 11.1472 21.0279 11.991 20.7684L11.8954 20.4613ZM14.9556 20.0267C13.795 20.0267 12.7729 20.1707 11.892 20.4624L11.9943 20.7673C12.8348 20.4891 13.821 20.3481 14.9556 20.3481V20.0267ZM18.2988 20.5245C17.355 20.1912 16.2394 20.0267 14.9556 20.0267V20.3481C16.2129 20.3481 17.29 20.5093 18.1904 20.8274L18.2988 20.5245ZM20.7827 21.5739C20.0749 21.181 19.2451 20.831 18.2948 20.5232L18.1945 20.8288C19.1295 21.1316 19.9391 21.4738 20.6248 21.8545L20.7827 21.5739ZM22.5764 22.6492C22.08 22.3205 21.4819 21.9621 20.7827 21.5739L20.6248 21.8545C21.3191 22.2399 21.9095 22.5939 22.3969 22.9166L22.5764 22.6492ZM23.9006 23.0802C23.5088 23.0802 23.0663 22.941 22.5698 22.6451L22.4034 22.9207C22.9315 23.2355 23.4317 23.4017 23.9006 23.4017V23.0802ZM24.8229 22.834C24.5899 22.9942 24.2863 23.0802 23.9006 23.0802V23.4017C24.3346 23.4017 24.7072 23.3045 25.0071 23.0983L24.8229 22.834ZM25.5737 21.9398C25.335 22.3548 25.0827 22.6496 24.8209 22.8354L25.009 23.0969C25.321 22.8756 25.6015 22.5393 25.8546 22.0993L25.5737 21.9398ZM27.6306 18.0665L25.5711 21.9445L25.8573 22.0945L27.9168 18.2165L27.6306 18.0665ZM22.0615 14.8722C24.2563 15.6797 26.1224 16.8088 27.6624 18.2582L27.885 18.0248C26.3101 16.5427 24.4056 15.3918 22.1739 14.5708L22.0615 14.8722ZM14.8634 13.6608C17.4694 13.6608 19.8682 14.0652 22.0615 14.8722L22.1739 14.5708C19.9408 13.7492 17.5035 13.3394 14.8634 13.3394V13.6608ZM8.71392 14.7182C10.4948 14.0145 12.5436 13.6608 14.8634 13.6608V13.3394C12.5108 13.3394 10.4201 13.6981 8.59433 14.4195L8.71392 14.7182ZM4.21721 17.5242C5.42968 16.3599 6.92754 15.4239 8.71392 14.7182L8.59433 14.4195C6.774 15.1387 5.23897 16.096 3.99233 17.2931L4.21721 17.5242ZM1.4256 21.533C2.07269 20.0264 3.00281 18.6904 4.21721 17.5242L3.99233 17.2931C2.74762 18.4884 1.79243 19.8598 1.12799 21.4068L1.4256 21.533ZM0.485676 26.1724C0.485676 24.5858 0.798918 23.0391 1.42631 21.5313L1.12728 21.4085C0.484139 22.9542 0.162109 24.5425 0.162109 26.1724H0.485676ZM1.33418 31.2107C0.770697 29.8512 0.485676 28.1736 0.485676 26.1724H0.162109C0.162109 28.2019 0.450883 29.9239 1.03498 31.3331L1.33418 31.2107ZM3.63262 34.5758C2.68684 33.6761 1.91982 32.5547 1.33305 31.208L1.03611 31.3357C1.63792 32.717 2.42833 33.8754 3.40884 34.8079L3.63262 34.5758ZM6.87819 36.7754C5.6644 36.2125 4.58278 35.4794 3.63262 34.5758L3.40884 34.8079C4.38498 35.7365 5.49608 36.4893 6.74139 37.0666L6.87819 36.7754ZM8.785 37.5873C8.14405 37.3382 7.50844 37.0675 6.87819 36.7754L6.74139 37.0666C7.37778 37.3616 8.01967 37.6349 8.6671 37.8865L8.785 37.5873ZM19.7747 33.078L8.66483 37.5882L8.78724 37.8856L19.8971 33.3756L19.7747 33.078ZM20.4849 48.0749L28.6313 44.7677L28.5089 44.4704L20.3625 47.7775L20.4849 48.0749ZM28.4084 44.6163C28.3745 46.4777 28.0306 48.2288 27.3773 49.87L27.6782 49.9883C28.3465 48.3092 28.6974 46.5201 28.7319 44.6221L28.4084 44.6163ZM27.377 49.871C26.709 51.58 25.7176 53.0776 24.4019 54.3646L24.6289 54.5934C25.9772 53.2746 26.9941 51.7388 27.6786 49.9874L27.377 49.871ZM24.4019 54.3646C23.1074 55.6304 21.5176 56.6371 19.6296 57.3831L19.7492 57.682C21.6727 56.9215 23.3003 55.8926 24.6289 54.5934L24.4019 54.3646ZM19.631 57.3828C17.7472 58.107 15.5851 58.4711 13.142 58.4711V58.7926C15.6171 58.7926 17.82 58.4239 19.7478 57.6824L19.631 57.3828ZM13.142 58.4711C11.739 58.4711 10.3566 58.3297 8.99461 58.0472L8.92841 58.3615C10.3124 58.6489 11.717 58.7926 13.142 58.7926V58.4711ZM8.99231 58.0465C7.62926 57.7839 6.31745 57.3998 5.0567 56.8949L4.93569 57.1931C6.21601 57.7058 7.54775 58.0957 8.93071 58.3622L8.99231 58.0465ZM5.05755 56.8952C3.96451 56.4503 2.92703 55.927 1.94498 55.3256L1.77516 55.5992C2.77258 56.2099 3.82586 56.7412 4.93485 57.1928L5.05755 56.8952ZM1.92127 55.6111L11.1144 51.879L10.992 51.5816L1.79887 55.3134L1.92127 55.6111ZM11.0256 51.8886C11.7496 52.013 12.5372 52.0747 13.3879 52.0747V51.7533C12.5527 51.7533 11.7838 51.6925 11.0807 51.572L11.0256 51.8886ZM13.3879 52.0747C15.7683 52.0747 17.6348 51.5196 18.9647 50.3872L18.7541 50.1429C17.502 51.2091 15.7208 51.7533 13.3879 51.7533V52.0747ZM18.9658 50.3862C19.7129 49.7383 20.2502 48.9344 20.5769 47.9778L20.2705 47.8746C19.9616 48.7791 19.4559 49.5345 18.753 50.1439L18.9658 50.3862Z" fill="white"/>
</svg>
